<svg xmlns="http://www.w3.org/2000/svg" xmlns:xlink="http://www.w3.org/1999/xlink" xml:space="preserve" version="1.1" style="shape-rendering:geometricPrecision;text-rendering:geometricPrecision;image-rendering:optimizeQuality;" viewBox="0 0 378 402.5" x="0px" y="0px" fill-rule="evenodd" clip-rule="evenodd"><defs><style type="text/css">
   
    .fil0 {fill:white;fill-rule:nonzero}
   
  </style></defs><g><path class="fil0" d="M36 0l306 0c20,0 36,16 36,36l0 199c0,20 -16,36 -36,36l-99 0 24 34 28 0c5,0 9,4 9,9 0,4 -4,8 -9,8l-212 0c-4,0 -8,-4 -8,-8 0,-5 4,-9 8,-9l29 0 24 -34 -100 0c-20,0 -36,-16 -36,-36l0 -199c0,-20 16,-36 36,-36zm210 305l-24 -34 -66 0 -24 34 114 0zm-229 -120l344 0 0 -149c0,-10 -8,-19 -19,-19l-306 0c-10,0 -19,9 -19,19l0 149zm344 17l-344 0 0 33c0,10 9,19 19,19l306 0c11,0 19,-9 19,-19l0 -33z"/><path class="fil0" d="M48 236c-4,0 -8,-3 -8,-8 0,-5 4,-9 8,-9l26 0c5,0 9,4 9,9 0,5 -4,8 -9,8l-26 0z"/><path class="fil0" d="M102 236c-5,0 -9,-3 -9,-8 0,-5 4,-9 9,-9l8 0c5,0 9,4 9,9 0,5 -4,8 -9,8l-8 0z"/></g></svg>